<svg width="28" height="28" viewBox="0 0 28 28" fill="none" xmlns="http://www.w3.org/2000/svg">
<path d="M25.6654 5.44864V19.5303C25.6654 20.6503 24.7554 21.7003 23.6354 21.8403L23.2504 21.887C20.707 22.2253 16.787 23.5203 14.547 24.757C14.2437 24.932 13.742 24.932 13.427 24.757L13.3803 24.7337C11.1403 23.5087 7.23207 22.2253 4.7004 21.887L4.36202 21.8403C3.24202 21.7003 2.33203 20.6503 2.33203 19.5303V5.43696C2.33203 4.04862 3.46367 2.99864 4.852 3.1153C7.302 3.31364 11.012 4.55033 13.0887 5.84533L13.3803 6.02029C13.7187 6.23029 14.2787 6.23029 14.6171 6.02029L14.8154 5.89197C15.5504 5.43697 16.4837 4.98197 17.4987 4.57364V9.33366L19.832 7.78197L22.1654 9.33366V3.24369C22.4804 3.18536 22.7837 3.15031 23.0637 3.12698H23.1337C24.5221 3.01031 25.6654 4.04864 25.6654 5.44864Z" stroke="black" stroke-width="1.75" stroke-linecap="round" stroke-linejoin="round"/>
<path d="M14 6.40527V23.9053" stroke="black" stroke-width="1.75" stroke-linecap="round" stroke-linejoin="round"/>
<path d="M22.1667 3.24414V9.33411L19.8333 7.78242L17.5 9.33411V4.57409C19.0283 3.96742 20.7317 3.47747 22.1667 3.24414Z" stroke="black" stroke-width="1.75" stroke-linecap="round" stroke-linejoin="round"/>
</svg>
